<svg id="shift" class="shadow" xmlns="http://www.w3.org/2000/svg" viewBox="81.15 119.08 339.82 203.27">
  				<path d="m256.73,307.7c-18.97,9.21-44.71,14.63-68.82,14.63-64.49,0-106.76-44.98-106.76-101.61s42.81-101.61,104.05-101.61c28.18,0,48.77,5.69,63.95,12.74v51.48c-12.46-5.42-31.43-12.46-58.26-12.46-34.68,0-52.84,24.12-52.84,49.86s17.34,50.4,49.86,50.4c5.15,0,10.3-.27,14.9-.81v-45.25h53.92v82.64Z" style="fill:#01003C; stroke-width:0px;"/>
  				<path d="m271.9,250.53c0-41.19,31.16-71.81,74.52-71.81s74.52,30.62,74.52,71.81-31.16,71.81-74.52,71.81-74.52-30.62-74.52-71.81Zm51.48,0c0,16.26,10.57,26.28,23.03,26.28s23.03-10.03,23.03-26.28-10.57-26.28-23.03-26.28-23.03,10.03-23.03,26.28Z" style="fill:#01003C; stroke-width:0px;"/></svg>
