<svg id="GeoMD" class="shadow anchorTop" xmlns="http://www.w3.org/2000/svg" viewBox="0 0 1005 231.38">	
	<path d="m194.4,208.8c-21,10.2-49.5,16.2-76.2,16.2C46.8,225,0,175.2,0,112.5S47.4,0,115.2,0c31.2,0,54,6.3,70.8,14.1v57c-13.8-6-34.8-13.8-64.5-13.8-38.4,0-58.5,26.7-58.5,55.2s19.2,55.8,55.2,55.8c5.7,0,11.4-.3,16.5-.9v-50.1h59.7v91.5Z" style="fill:#01003C; stroke-width:0px;"></path>
	<path d="m361.5,136.5c0,9.6-1.2,18.6-1.8,21.3h-85.5c2.7,11.7,14.1,16.5,31.2,16.5,22.2,0,45.6-6.6,49.8-8.1v50.4c-7.2,3-27.3,8.4-55.8,8.4-55.8,0-88.5-33.9-88.5-79.5s34.2-79.5,78.9-79.5c48.3,0,71.7,33,71.7,70.5Zm-72.3-24c-10.5,0-15.6,8.1-15.6,19.2h30.6c.6-11.1-4.5-19.2-15-19.2Z" style="fill:#01003C; stroke-width:0px;"></path>	
	<path d="m803.4,220.5h-54.6v-50.1c0-20.7.3-39.6,1.2-55.8-6.3,15.6-17.1,39.9-24.3,54.9l-27.6,58.2-27.6-58.2c-7.2-15-18-39.3-24.3-54.9.9,16.2,1.2,35.1,1.2,55.8v50.1h-54.6V10.5h53.4l25.8,56.1c12.3,27,23.1,51.6,26.4,63.3,3.6-12,13.2-34.8,26.4-63.3l25.8-56.1h52.8v210Z" style="fill:#01003C; stroke-width:0px;"></path>	
	<path d="m1005,114.3c0,78.9-39,106.2-113.4,106.2h-68.1V10.5h73.5c66,0,108,24.9,108,103.8Zm-59.7.9c0-38.7-12.3-54.9-48.6-54.9h-14.4v110.4h12.6c36.3,0,50.4-13.8,50.4-55.5Z" style="fill:#01003C; stroke-width:0px;"></path>  
	<path d="m397.41,170.3c-7.42-.95-15-1.34-22.73-1.17-4.91-17.98-3.91-37.68,4.12-56l25.3,11.72c-6.14,14-8.37,29.22-6.69,45.45Z" style="fill:#01003C; stroke-width:0px;"></path>	
	<path d="m438.97,85.16c-14.99,9.52-26.18,21.74-33.38,36.49l-25.3-11.72c9.32-19.08,24.95-33.12,43.21-40.75,4.84,5.79,10.01,11.12,15.48,15.98Z" style="fill:#01003C; stroke-width:0px;"></path>	
	<path d="m413.52,219.82c-18.54-10.79-31.64-27.86-37.81-47.18,7.53-.12,14.91.3,22.14,1.28.74,5.35,1.9,10.8,3.47,16.36,3.45,12.16,8.24,22.35,12.2,29.55Z" style="fill:#01003C; stroke-width:0px;"></path>	
	<path d="m484.12,67.42c-8.05,1.63-18.92,4.57-30.43,9.8-4.06,1.85-7.92,3.85-11.58,6-5.36-4.69-10.42-9.83-15.16-15.42,17.94-6.6,38.11-7.14,57.17-.39Z" style="fill:#01003C; stroke-width:0px;"></path>	
	<path d="m489.79,69.97l-15.8,34.11c-10.45-4.92-20.13-11.08-29.02-18.43,3.23-1.85,6.63-3.59,10.18-5.21,13.82-6.28,26.7-9.17,34.64-10.47Z" style="fill:#01003C; stroke-width:0px;"></path>	
	<path d="m472.51,107.28l-17.3,37.35-46.41-21.5c7.05-14.41,18.11-26.33,32.97-35.56,9.38,7.9,19.64,14.48,30.75,19.71Z" style="fill:#01003C; stroke-width:0px;"></path>	
	<path d="m453.72,147.83l-15.75,34c-11.8-5.38-24.13-9.06-36.95-11.04-1.79-15.92.31-30.81,6.29-44.47l46.41,21.5Z" style="fill:#01003C; stroke-width:0px;"></path>	
	<path d="m436.49,185.04l-17.35,37.46c-4.14-6.89-10.27-18.58-14.42-33.19-1.43-5.04-2.51-9.99-3.22-14.85,12.14,1.96,23.81,5.49,34.99,10.58Z" style="fill:#01003C; stroke-width:0px;"></path>	
	<path d="m509.92,115.28c-11.32-1.88-22.24-5.12-32.72-9.73l15.79-34.09c4.14,6.89,10.27,18.58,14.42,33.19,1.02,3.59,1.86,7.13,2.51,10.63Z" style="fill:#01003C; stroke-width:0px;"></path>	
	<path d="m469.94,206.65c-4.04,2.49-8.36,4.78-12.96,6.87-13.82,6.28-26.7,9.17-34.64,10.47l17.34-37.43c10.95,5.34,21.05,12.05,30.26,20.1Z" style="fill:#01003C; stroke-width:0px;"></path>	
	<path d="m534.99,117.21c-7.27.06-14.4-.4-21.38-1.37-.71-4-1.65-8.05-2.81-12.16-3.46-12.16-8.25-22.36-12.21-29.55,17.22,10.03,29.74,25.45,36.39,43.08Z" style="fill:#01003C; stroke-width:0px;"></path>	
	<path d="m503.34,170.82c-6.62,13.54-16.78,24.87-30.3,33.85-9.66-8.58-20.3-15.7-31.87-21.33l15.76-34.03,46.41,21.5Z" style="fill:#01003C; stroke-width:0px;"></path>	
	<path d="m504.82,167.62l-46.41-21.5,17.31-37.37c11.15,4.91,22.78,8.32,34.83,10.21,2.68,17.5.77,33.82-5.73,48.66Z" style="fill:#01003C; stroke-width:0px;"></path>	
	<path d="m487.66,225.18c-18.55,7.5-39.71,8.42-59.66,1.35,8.04-1.63,18.91-4.57,30.43-9.8,5.07-2.31,9.82-4.85,14.24-7.62,5.31,4.9,10.3,10.26,14.99,16.07Z" style="fill:#01003C; stroke-width:0px;"></path>	
	<path d="m531.85,184.02c-8.91,18.25-23.59,31.88-40.81,39.71-4.78-6.01-9.88-11.55-15.31-16.62,13.71-9.26,24.03-20.92,30.82-34.81l25.3,11.72Z" style="fill:#01003C; stroke-width:0px;"></path>	
	<path d="m533.33,180.82l-25.3-11.72c6.66-15.2,8.73-31.82,6.17-49.61,7.19.94,14.54,1.36,22.02,1.24,6.25,19.06,5.76,40.37-2.89,60.1Z" style="fill:#01003C; stroke-width:0px;"></path>	
	<path d="m397.41,170.3c-7.42-.95-15-1.34-22.73-1.17-4.91-17.98-3.91-37.68,4.12-56l25.3,11.72c-6.14,14-8.37,29.22-6.69,45.45Z" style="fill:#01003C; stroke-width:0px;"></path>	
	<path d="m438.97,85.16c-14.99,9.52-26.18,21.74-33.38,36.49l-25.3-11.72c9.32-19.08,24.95-33.12,43.21-40.75,4.84,5.79,10.01,11.12,15.48,15.98Z" style="fill:#01003C; stroke-width:0px;"></path>	
	<path d="m413.52,219.82c-18.54-10.79-31.64-27.86-37.81-47.18,7.53-.12,14.91.3,22.14,1.28.74,5.35,1.9,10.8,3.47,16.36,3.45,12.16,8.24,22.35,12.2,29.55Z" style="fill:#01003C; stroke-width:0px;"></path>	
	<path d="m484.12,67.42c-8.05,1.63-18.92,4.57-30.43,9.8-4.06,1.85-7.92,3.85-11.58,6-5.36-4.69-10.42-9.83-15.16-15.42,17.94-6.6,38.11-7.14,57.17-.39Z" style="fill:#01003C; stroke-width:0px;"></path>	
	<path d="m489.79,69.97l-15.8,34.11c-10.45-4.92-20.13-11.08-29.02-18.43,3.23-1.85,6.63-3.59,10.18-5.21,13.82-6.28,26.7-9.17,34.64-10.47Z" style="fill:#01003C; stroke-width:0px;"></path>	
	<path d="m472.51,107.28l-17.3,37.35-46.41-21.5c7.05-14.41,18.11-26.33,32.97-35.56,9.38,7.9,19.64,14.48,30.75,19.71Z" style="fill:#01003C; stroke-width:0px;"></path>	
	<path d="m453.72,147.83l-15.75,34c-11.8-5.38-24.13-9.06-36.95-11.04-1.79-15.92.31-30.81,6.29-44.47l46.41,21.5Z" style="fill:#01003C; stroke-width:0px;"></path>	
	<path d="m436.49,185.04l-17.35,37.46c-4.14-6.89-10.27-18.58-14.42-33.19-1.43-5.04-2.51-9.99-3.22-14.85,12.14,1.96,23.81,5.49,34.99,10.58Z" style="fill:#01003C; stroke-width:0px;"></path>	
	<path d="m509.92,115.28c-11.32-1.88-22.24-5.12-32.72-9.73l15.79-34.09c4.14,6.89,10.27,18.58,14.42,33.19,1.02,3.59,1.86,7.13,2.51,10.63Z" style="fill:#01003C; stroke-width:0px;"></path>	
	<path d="m469.94,206.65c-4.04,2.49-8.36,4.78-12.96,6.87-13.82,6.28-26.7,9.17-34.64,10.47l17.34-37.43c10.95,5.34,21.05,12.05,30.26,20.1Z" style="fill:#01003C; stroke-width:0px;"></path>	
	<path d="m534.99,117.21c-7.27.06-14.4-.4-21.38-1.37-.71-4-1.65-8.05-2.81-12.16-3.46-12.16-8.25-22.36-12.21-29.55,17.22,10.03,29.74,25.45,36.39,43.08Z" style="fill:#01003C; stroke-width:0px;"></path>	
	<path d="m503.34,170.82c-6.62,13.54-16.78,24.87-30.3,33.85-9.66-8.58-20.3-15.7-31.87-21.33l15.76-34.03,46.41,21.5Z" style="fill:#01003C; stroke-width:0px;"></path>	
	<path d="m504.82,167.62l-46.41-21.5,17.31-37.37c11.15,4.91,22.78,8.32,34.83,10.21,2.68,17.5.77,33.82-5.73,48.66Z" style="fill:#01003C; stroke-width:0px;"></path>	
	<path d="m487.66,225.18c-18.55,7.5-39.71,8.42-59.66,1.35,8.04-1.63,18.91-4.57,30.43-9.8,5.07-2.31,9.82-4.85,14.24-7.62,5.31,4.9,10.3,10.26,14.99,16.07Z" style="fill:#01003C; stroke-width:0px;"></path>	
	<path d="m531.85,184.02c-8.91,18.25-23.59,31.88-40.81,39.71-4.78-6.01-9.88-11.55-15.31-16.62,13.71-9.26,24.03-20.92,30.82-34.81l25.3,11.72Z" style="fill:#01003C; stroke-width:0px;"></path>	
	<path d="m533.33,180.82l-25.3-11.72c6.66-15.2,8.73-31.82,6.17-49.61,7.19.94,14.54,1.36,22.02,1.24,6.25,19.06,5.76,40.37-2.89,60.1Z" style="fill:#01003C; stroke-width:0px;"></path>	
	<rect x="536.7" y="33.95" width="18.69" height="53.1" style="fill:#01003C; stroke-width:0px;"></rect>	
	<rect x="536.7" y="33.95" width="18.69" height="53.1" transform="translate(485.55 606.54) rotate(-90)" style="fill:#01003C; stroke-width:0px;"></rect>	
</svg>

