
<svg id="geoAI" class="home-img shadow" xmlns="http://www.w3.org/2000/svg" viewBox="78.72 69.87 333.28 337.4">		
	<path d="m122.46,303.44c-12.62-1.62-25.51-2.29-38.66-2-8.35-30.58-6.66-64.07,7-95.23l43.03,19.93c-10.44,23.81-14.23,49.69-11.37,77.29Z" style="fill:#01003C; stroke-width:0px;"></path>		
	<path d="m193.12,158.65c-25.49,16.18-44.52,36.97-56.77,62.06l-43.03-19.93c15.85-32.45,42.44-56.33,73.48-69.31,8.23,9.85,17.02,18.91,26.32,27.18Z" style="fill:#01003C; stroke-width:0px;"></path>		
	<path d="m149.86,387.65c-31.54-18.36-53.8-47.37-64.3-80.24,12.81-.2,25.36.52,37.64,2.17,1.26,9.1,3.23,18.37,5.9,27.82,5.87,20.68,14.02,38.01,20.75,50.25Z" style="fill:#01003C; stroke-width:0px;"></path>		
	<path d="m269.91,128.49c-13.68,2.78-32.17,7.77-51.75,16.66-6.91,3.15-13.47,6.55-19.69,10.21-9.11-7.97-17.72-16.71-25.79-26.22,30.51-11.22,64.8-12.14,97.22-.66Z" style="fill:#01003C; stroke-width:0px;"></path>		
	<path d="m279.55,132.82l-26.87,58.01c-17.77-8.36-34.23-18.83-49.35-31.35,5.49-3.15,11.27-6.11,17.32-8.86,23.51-10.69,45.41-15.6,58.91-17.8Z" style="fill:#01003C; stroke-width:0px;"></path>		
	<path d="m250.16,196.28l-29.42,63.52-78.93-36.56c11.99-24.51,30.79-44.77,56.06-60.48,15.95,13.44,33.4,24.63,52.29,33.53Z" style="fill:#01003C; stroke-width:0px;"></path>		
	<path d="m218.21,265.24l-26.79,57.83c-20.06-9.15-41.04-15.41-62.84-18.77-3.04-27.08.53-52.4,10.7-75.62l78.93,36.56Z" style="fill:#01003C; stroke-width:0px;"></path>		
	<path d="m188.9,328.51l-29.51,63.7c-7.05-11.72-17.47-31.6-24.52-56.44-2.43-8.57-4.27-16.99-5.48-25.25,20.64,3.33,40.5,9.34,59.51,18Z" style="fill:#01003C; stroke-width:0px;"></path>		
	<path d="m313.79,209.87c-19.25-3.2-37.82-8.71-55.65-16.55l26.85-57.97c7.05,11.72,17.47,31.6,24.52,56.44,1.73,6.1,3.16,12.13,4.28,18.08Z" style="fill:#01003C; stroke-width:0px;"></path>		
	<path d="m245.79,365.25c-6.88,4.23-14.22,8.12-22.04,11.68-23.51,10.69-45.41,15.6-58.91,17.8l29.49-63.66c18.63,9.08,35.8,20.5,51.46,34.19Z" style="fill:#01003C; stroke-width:0px;"></path>		
	<path d="m356.42,213.15c-12.37.1-24.48-.68-36.35-2.32-1.21-6.8-2.8-13.7-4.78-20.68-5.88-20.68-14.03-38.02-20.76-50.25,29.29,17.05,50.58,43.28,61.89,73.26Z" style="fill:#01003C; stroke-width:0px;"></path>		
	<path d="m302.59,304.32c-11.26,23.03-28.53,42.3-51.53,57.57-16.43-14.59-34.52-26.69-54.2-36.27l26.8-57.86,78.93,36.56Z" style="fill:#01003C; stroke-width:0px;"></path>		
	<path d="m305.11,298.88l-78.93-36.56,29.44-63.55c18.96,8.36,38.73,14.14,59.24,17.37,4.56,29.76,1.31,57.51-9.74,82.75Z" style="fill:#01003C; stroke-width:0px;"></path>		
	<path d="m275.94,396.76c-31.54,12.75-67.53,14.31-101.45,2.3,13.67-2.78,32.17-7.77,51.75-16.66,8.62-3.92,16.69-8.25,24.21-12.96,9.03,8.33,17.52,17.44,25.5,27.33Z" style="fill:#01003C; stroke-width:0px;"></path>	
	<path d="m351.07,326.78c-15.16,31.03-40.13,54.22-69.4,67.53-8.13-10.22-16.81-19.65-26.03-28.26,23.31-15.75,40.87-35.57,52.41-59.2l43.03,19.93Z" style="fill:#01003C; stroke-width:0px;"></path>		
	<path d="m353.59,321.34l-43.03-19.93c11.33-25.84,14.84-54.11,10.5-84.37,12.23,1.6,24.72,2.3,37.45,2.11,10.62,32.41,9.79,68.65-4.92,102.2Z" style="fill:#01003C; stroke-width:0px;"></path>		
</svg>